<svg aria-labelledby="simpleicons-coursera-icon" role="img" xmlns="http://www.w3.org/2000/svg" width="24" height="12"><rect id="backgroundrect" width="100%" height="100%" x="0" y="0" fill="none" stroke="none"/><title id="simpleicons-coursera-icon">Coursera icon</title><g class="currentLayer" style=""><title>Layer 1</title><path d="M23.897811889648438,5.923093795776367 c-0.004999999888241291,-0.09399999678134918 -0.009999999776482582,-0.1860000044107437 -0.017999999225139618,-0.2770000100135803 v-0.006000000052154064 c-0.09000000357627869,-1.0099999904632568 -0.42399999499320984,-1.9600000381469727 -0.9860000014305115,-2.809999942779541 c-0.2540000081062317,-0.3799999952316284 -0.5429999828338623,-0.7300000190734863 -0.8659999966621399,-1.0399999618530273 c-0.4699999988079071,-0.44999998807907104 -1.0160000324249268,-0.8199999928474426 -1.628000020980835,-1.1200000047683716 c-0.9259999990463257,-0.4399999976158142 -1.9500000476837158,-0.6600000262260437 -3.0399999618530273,-0.6600000262260437 c-0.10499999672174454,0 -0.2199999988079071,0 -0.33000001311302185,0.009999999776482582 c-0.7680000066757202,0.03999999910593033 -1.5080000162124634,0.18000000715255737 -2.2049999237060547,0.4300000071525574 c-0.699999988079071,0.25 -1.3140000104904175,0.5929999947547913 -1.8070000410079956,1 c-0.10499999672174454,0.09000000357627869 -0.20999999344348907,0.18000000715255737 -0.328000009059906,0.30000001192092896 l-0.09000000357627869,0.09000000357627869 l-0.10499999672174454,0.12999999523162842 l-0.04500000178813934,0.05999999865889549 l-0.029999999329447746,0.029999999329447746 l-0.1340000033378601,0.1459999978542328 c-0.10400000214576721,0.11999999731779099 -0.1940000057220459,0.23999999463558197 -0.28299999237060547,0.34700000286102295 h-0.04699999839067459 c-0.1899999976158142,0.23499999940395355 -0.3700000047683716,0.47999998927116394 -0.49799999594688416,0.6840000152587891 c-0.09000000357627869,0.13500000536441803 -0.17599999904632568,0.2840000092983246 -0.257999986410141,0.43299999833106995 l-1.1399999856948853,2.240000009536743 h0.0020000000949949026 l-0.05999999865889549,0.11999999731779099 l-0.125,0.2540000081062317 c-0.25999999046325684,0.5099999904632568 -0.5199999809265137,1.0180000066757202 -0.8199999928474426,1.4359999895095825 c-0.6700000166893005,0.7350000143051147 -1.4299999475479126,1.0950000286102295 -2.4000000953674316,1.0950000286102295 h-0.20999999344348907 c-0.5799999833106995,-0.019999999552965164 -1.090000033378601,-0.16699999570846558 -1.5299999713897705,-0.41999998688697815 l-0.14000000059604645,-0.09000000357627869 c-0.3700000047683716,-0.23999999463558197 -0.6399999856948853,-0.5400000214576721 -0.8500000238418579,-0.9300000071525574 c-0.23999999463558197,-0.44600000977516174 -0.3400000035762787,-0.8939999938011169 -0.33000001311302185,-1.3700000047683716 l0.009999999776482582,-0.029999999329447746 c0.029999999329447746,-0.7599999904632568 0.3199999928474426,-1.340000033378601 0.8999999761581421,-1.850000023841858 c0.14000000059604645,-0.11999999731779099 0.28999999165534973,-0.23000000417232513 0.4399999976158142,-0.3179999887943268 c0.019999999552965164,-0.019999999552965164 0.03999999910593033,-0.019999999552965164 0.05999999865889549,-0.029999999329447746 c0.4300000071525574,-0.23000000417232513 0.9200000166893005,-0.3479999899864197 1.4800000190734863,-0.3479999899864197 l0.17000000178813934,0.014000000432133675 c0.8949999809265137,0.029999999329447746 1.590000033378601,0.3140000104904175 2.134999990463257,0.8500000238418579 l1.7259999513626099,-3.130000114440918 c-0.41499999165534973,-0.27000001072883606 -0.8799999952316284,-0.5059999823570251 -1.3940000534057617,-0.699999988079071 l-0.05999999865889549,-0.014999999664723873 c-0.05999999865889549,-0.019999999552965164 -0.11999999731779099,-0.04800000041723251 -0.18000000715255737,-0.05999999865889549 c-0.550000011920929,-0.18000000715255737 -1.1200000047683716,-0.28700000047683716 -1.7100000381469727,-0.34599998593330383 h-0.03999999910593033 l-0.2800000011920929,-0.03999999910593033 l-0.2980000078678131,-0.003000000026077032 H6.5078125 c-1.0829999446868896,0.004000000189989805 -2.0920000076293945,0.22599999606609344 -3.015000104904175,0.6700000166893005 C2.4678125381469727,1.184093952178955 1.6278125047683716,1.9010939598083496 1.0078125,2.8410940170288086 c-0.6140000224113464,0.9399999976158142 -0.949999988079071,1.9769999980926514 -1,3.0899999141693115 c-0.004999999888241291,0.09000000357627869 -0.00800000037997961,0.18000000715255737 -0.00800000037997961,0.2879999876022339 c0,1.5529999732971191 0.5680000185966492,2.9260001182556152 1.6959999799728394,4.077000141143799 c1.1699999570846558,1.194000005722046 2.700000047683716,1.850000023841858 4.539999961853027,1.9240000247955322 h0.3499999940395355 c1.0399999618530273,0 2,-0.20000000298023224 2.867000102996826,-0.5699999928474426 c0.20999999344348907,-0.09000000357627869 0.41999998688697815,-0.19300000369548798 0.6359999775886536,-0.3160000145435333 c0.11999999731779099,-0.05999999865889549 0.23999999463558197,-0.14000000059604645 0.3499999940395355,-0.20999999344348907 l0.09000000357627869,-0.04800000041723251 l0.13600000739097595,-0.09000000357627869 c0.16500000655651093,-0.10599999874830246 0.33000001311302185,-0.23999999463558197 0.47999998927116394,-0.375 l0.05999999865889549,-0.0430000014603138 c0.09000000357627869,-0.07000000029802322 0.18000000715255737,-0.1599999964237213 0.27000001072883606,-0.25 l0.3149999976158142,-0.34599998593330383 l0.11999999731779099,-0.14300000667572021 l0.0430000014603138,-0.09000000357627869 l0.05999999865889549,-0.07400000095367432 c0.46000000834465027,-0.7770000100135803 1.9550000429153442,-3.5840001106262207 1.9550000429153442,-3.5840001106262207 v-0.019999999552965164 l0.09000000357627869,-0.1599999964237213 l0.07599999755620956,-0.13699999451637268 c0.22499999403953552,-0.4000000059604645 0.38999998569488525,-0.6840000152587891 0.6000000238418579,-0.9819999933242798 v-0.019999999552965164 c0.49000000953674316,-0.7200000286102295 1.340000033378601,-1.2259999513626099 2.3429999351501465,-1.309999942779541 c1.6729999780654907,-0.15000000596046448 3.1500000953674316,0.9549999833106995 3.2850000858306885,2.450000047683716 c0.14000000059604645,1.5 -1.1200000047683716,2.8299999237060547 -2.7899999618530273,2.9739999771118164 c-0.3400000035762787,0.029999999329447746 -0.6850000023841858,0 -1,-0.05999999865889549 c-1.2230000495910645,-0.25 -2,-1.149999976158142 -2.390000104904175,-1.5499999523162842 l-1.6100000143051147,2.9600000381469727 s0.5099999904632568,0.5 0.8500000238418579,0.7540000081062317 s0.7940000295639038,0.5 1.149999976158142,0.6499999761581421 c0.8550000190734863,0.3700000047683716 1.7960000038146973,0.5870000123977661 2.8259999752044678,0.5870000123977661 c0.11999999731779099,0 0.09000000357627869,0 0.2199999988079071,-0.009999999776482582 c1.840000033378601,-0.07500000298023224 3.4800000190734863,-0.777999997138977 4.659999847412109,-1.9869999885559082 c1.1200000047683716,-1.149999976158142 1.7300000190734863,-2.450000047683716 1.7300000190734863,-4 v-0.30000001192092896 h-0.10999999940395355 z" id="svg_1" class="" fill="#5584c4" fill-opacity="1"/></g></svg>